<?xml version="1.0" encoding="UTF-8"?>
<svg width="800" height="600" viewBox="0 0 800 600" fill="none" xmlns="http://www.w3.org/2000/svg">
  <rect width="800" height="600" fill="#F3F4F6"/>
  <path d="M0 0H800V450H0V0Z" fill="#E5E7EB"/>
  <path d="M100 500H700V510H100V500Z" fill="#E5E7EB"/>
  <path d="M100 530H600V540H100V530Z" fill="#E5E7EB"/>
  <path d="M100 560H400V570H100V560Z" fill="#E5E7EB"/>
  <path d="M100 480C100 477.239 102.239 475 105 475H195C197.761 475 200 477.239 200 480V490C200 492.761 197.761 495 195 495H105C102.239 495 100 492.761 100 490V480Z" fill="#9CA3AF"/>
  <path d="M0 0V600H800V0H0ZM20 20H780V430H20V20Z" fill="#9CA3AF" fill-opacity="0.2"/>
  <path d="M400 200C400 244.183 364.183 280 320 280C275.817 280 240 244.183 240 200C240 155.817 275.817 120 320 120C364.183 120 400 155.817 400 200Z" fill="#9CA3AF"/>
  <path d="M320 280C365.523 280 402.928 314.286 407.677 358.095C408.559 368.417 400.33 377.5 390 377.5H250C239.67 377.5 231.441 368.417 232.323 358.095C237.072 314.286 274.477 280 320 280Z" fill="#9CA3AF"/>
  <path d="M500 250H700V270H500V250Z" fill="#9CA3AF"/>
  <path d="M500 300H650V320H500V300Z" fill="#9CA3AF"/>
  <path d="M500 350H600V370H500V350Z" fill="#9CA3AF"/>
</svg>
